<mxfile host="app.diagrams.net" modified="2022-07-12T11:04:24.990Z" agent="5.0 (Windows NT 10.0; Win64; x64) AppleWebKit/537.36 (KHTML, like Gecko) Chrome/103.0.0.0 Safari/537.36" etag="IzH9CFG4VPvKHoXkDKU0" version="20.0.4" type="github">
  <diagram id="niMGvg3uXuLtMgdhvWrS" name="Page-1">
    <mxGraphModel dx="782" dy="434" grid="1" gridSize="10" guides="1" tooltips="1" connect="1" arrows="1" fold="1" page="1" pageScale="1" pageWidth="827" pageHeight="1169" math="0" shadow="0">
      <root>
        <mxCell id="0" />
        <mxCell id="1" parent="0" />
        <mxCell id="2_Vsr7ODEx59oDxRcPSc-5" style="edgeStyle=orthogonalEdgeStyle;rounded=0;orthogonalLoop=1;jettySize=auto;html=1;exitX=1;exitY=0.5;exitDx=0;exitDy=0;entryX=0;entryY=0.5;entryDx=0;entryDy=0;" edge="1" parent="1" source="2_Vsr7ODEx59oDxRcPSc-1" target="2_Vsr7ODEx59oDxRcPSc-2">
          <mxGeometry relative="1" as="geometry" />
        </mxCell>
        <mxCell id="2_Vsr7ODEx59oDxRcPSc-1" value="Population Synthesis&lt;br&gt;(PopSim)" style="rounded=0;whiteSpace=wrap;html=1;" vertex="1" parent="1">
          <mxGeometry x="109" y="40" width="120" height="60" as="geometry" />
        </mxCell>
        <mxCell id="2_Vsr7ODEx59oDxRcPSc-6" style="edgeStyle=orthogonalEdgeStyle;rounded=0;orthogonalLoop=1;jettySize=auto;html=1;exitX=1;exitY=0.5;exitDx=0;exitDy=0;" edge="1" parent="1" source="2_Vsr7ODEx59oDxRcPSc-2" target="2_Vsr7ODEx59oDxRcPSc-3">
          <mxGeometry relative="1" as="geometry" />
        </mxCell>
        <mxCell id="2_Vsr7ODEx59oDxRcPSc-2" value="Activities generation&lt;br&gt;(ASim)" style="rounded=0;whiteSpace=wrap;html=1;" vertex="1" parent="1">
          <mxGeometry x="353" y="40" width="120" height="60" as="geometry" />
        </mxCell>
        <mxCell id="2_Vsr7ODEx59oDxRcPSc-57" style="edgeStyle=orthogonalEdgeStyle;rounded=0;orthogonalLoop=1;jettySize=auto;html=1;exitX=0.5;exitY=1;exitDx=0;exitDy=0;entryX=0.5;entryY=1;entryDx=0;entryDy=0;" edge="1" parent="1" source="2_Vsr7ODEx59oDxRcPSc-3" target="2_Vsr7ODEx59oDxRcPSc-1">
          <mxGeometry relative="1" as="geometry">
            <Array as="points">
              <mxPoint x="659" y="140" />
              <mxPoint x="169" y="140" />
            </Array>
          </mxGeometry>
        </mxCell>
        <mxCell id="2_Vsr7ODEx59oDxRcPSc-3" value="Micro Stimulation&lt;br&gt;(MATSim)" style="rounded=0;whiteSpace=wrap;html=1;" vertex="1" parent="1">
          <mxGeometry x="599" y="40" width="120" height="60" as="geometry" />
        </mxCell>
        <mxCell id="2_Vsr7ODEx59oDxRcPSc-46" style="edgeStyle=orthogonalEdgeStyle;rounded=0;orthogonalLoop=1;jettySize=auto;html=1;exitX=1;exitY=0.5;exitDx=0;exitDy=0;" edge="1" parent="1" source="2_Vsr7ODEx59oDxRcPSc-4" target="2_Vsr7ODEx59oDxRcPSc-39">
          <mxGeometry relative="1" as="geometry" />
        </mxCell>
        <mxCell id="2_Vsr7ODEx59oDxRcPSc-4" value="Population Synthesis" style="rounded=0;whiteSpace=wrap;html=1;" vertex="1" parent="1">
          <mxGeometry x="410" y="320" width="120" height="60" as="geometry" />
        </mxCell>
        <mxCell id="2_Vsr7ODEx59oDxRcPSc-9" value="Vic in future (prediction)" style="shape=card;whiteSpace=wrap;html=1;" vertex="1" parent="1">
          <mxGeometry x="140" y="610" width="80" height="100" as="geometry" />
        </mxCell>
        <mxCell id="2_Vsr7ODEx59oDxRcPSc-10" value="Old data so we can use as projection" style="shape=card;whiteSpace=wrap;html=1;" vertex="1" parent="1">
          <mxGeometry x="141.25" y="485" width="80" height="100" as="geometry" />
        </mxCell>
        <mxCell id="2_Vsr7ODEx59oDxRcPSc-12" value="" style="strokeWidth=2;html=1;shape=mxgraph.flowchart.annotation_1;align=left;pointerEvents=1;rotation=90;" vertex="1" parent="1">
          <mxGeometry x="-73.12" y="423.13" width="450" height="213.75" as="geometry" />
        </mxCell>
        <mxCell id="2_Vsr7ODEx59oDxRcPSc-35" style="edgeStyle=orthogonalEdgeStyle;rounded=0;orthogonalLoop=1;jettySize=auto;html=1;exitX=1;exitY=0.5;exitDx=0;exitDy=0;entryX=0;entryY=0.25;entryDx=0;entryDy=0;" edge="1" parent="1" source="2_Vsr7ODEx59oDxRcPSc-14" target="2_Vsr7ODEx59oDxRcPSc-4">
          <mxGeometry relative="1" as="geometry" />
        </mxCell>
        <mxCell id="2_Vsr7ODEx59oDxRcPSc-14" value="Persons (seed)" style="rounded=1;whiteSpace=wrap;html=1;" vertex="1" parent="1">
          <mxGeometry x="121.25" y="320" width="120" height="20" as="geometry" />
        </mxCell>
        <mxCell id="2_Vsr7ODEx59oDxRcPSc-36" style="edgeStyle=orthogonalEdgeStyle;rounded=0;orthogonalLoop=1;jettySize=auto;html=1;exitX=1;exitY=0.5;exitDx=0;exitDy=0;entryX=0;entryY=0.5;entryDx=0;entryDy=0;" edge="1" parent="1" source="2_Vsr7ODEx59oDxRcPSc-15" target="2_Vsr7ODEx59oDxRcPSc-4">
          <mxGeometry relative="1" as="geometry" />
        </mxCell>
        <mxCell id="2_Vsr7ODEx59oDxRcPSc-15" value="Households (seed)" style="rounded=1;whiteSpace=wrap;html=1;" vertex="1" parent="1">
          <mxGeometry x="121.25" y="350" width="120" height="20" as="geometry" />
        </mxCell>
        <mxCell id="2_Vsr7ODEx59oDxRcPSc-37" style="edgeStyle=orthogonalEdgeStyle;rounded=0;orthogonalLoop=1;jettySize=auto;html=1;exitX=1;exitY=0.5;exitDx=0;exitDy=0;entryX=0.008;entryY=0.883;entryDx=0;entryDy=0;entryPerimeter=0;" edge="1" parent="1" source="2_Vsr7ODEx59oDxRcPSc-16" target="2_Vsr7ODEx59oDxRcPSc-4">
          <mxGeometry relative="1" as="geometry" />
        </mxCell>
        <mxCell id="2_Vsr7ODEx59oDxRcPSc-16" value="Total control" style="rounded=1;whiteSpace=wrap;html=1;" vertex="1" parent="1">
          <mxGeometry x="121.25" y="385" width="120" height="20" as="geometry" />
        </mxCell>
        <mxCell id="2_Vsr7ODEx59oDxRcPSc-50" style="edgeStyle=orthogonalEdgeStyle;rounded=0;orthogonalLoop=1;jettySize=auto;html=1;entryX=0;entryY=0.25;entryDx=0;entryDy=0;" edge="1" parent="1" source="2_Vsr7ODEx59oDxRcPSc-17" target="2_Vsr7ODEx59oDxRcPSc-47">
          <mxGeometry relative="1" as="geometry" />
        </mxCell>
        <mxCell id="2_Vsr7ODEx59oDxRcPSc-17" value="Land use" style="rounded=1;whiteSpace=wrap;html=1;" vertex="1" parent="1">
          <mxGeometry x="121.25" y="415" width="120" height="20" as="geometry" />
        </mxCell>
        <mxCell id="2_Vsr7ODEx59oDxRcPSc-51" style="edgeStyle=orthogonalEdgeStyle;rounded=0;orthogonalLoop=1;jettySize=auto;html=1;exitX=1;exitY=0.5;exitDx=0;exitDy=0;entryX=0;entryY=0.75;entryDx=0;entryDy=0;" edge="1" parent="1" source="2_Vsr7ODEx59oDxRcPSc-18" target="2_Vsr7ODEx59oDxRcPSc-47">
          <mxGeometry relative="1" as="geometry" />
        </mxCell>
        <mxCell id="2_Vsr7ODEx59oDxRcPSc-18" value="OD matrices" style="rounded=1;whiteSpace=wrap;html=1;" vertex="1" parent="1">
          <mxGeometry x="121.25" y="444.5" width="120" height="20" as="geometry" />
        </mxCell>
        <mxCell id="2_Vsr7ODEx59oDxRcPSc-21" value="" style="shape=curlyBracket;whiteSpace=wrap;html=1;rounded=1;" vertex="1" parent="1">
          <mxGeometry x="101.25" y="310" width="20" height="70" as="geometry" />
        </mxCell>
        <mxCell id="2_Vsr7ODEx59oDxRcPSc-24" value="VISTA" style="text;html=1;strokeColor=none;fillColor=none;align=center;verticalAlign=middle;whiteSpace=wrap;rounded=0;" vertex="1" parent="1">
          <mxGeometry x="50" y="330" width="60" height="30" as="geometry" />
        </mxCell>
        <mxCell id="2_Vsr7ODEx59oDxRcPSc-25" value="Census" style="text;html=1;strokeColor=none;fillColor=none;align=center;verticalAlign=middle;whiteSpace=wrap;rounded=0;" vertex="1" parent="1">
          <mxGeometry x="50" y="380" width="60" height="30" as="geometry" />
        </mxCell>
        <mxCell id="2_Vsr7ODEx59oDxRcPSc-27" value="GIS" style="text;html=1;strokeColor=none;fillColor=none;align=center;verticalAlign=middle;whiteSpace=wrap;rounded=0;" vertex="1" parent="1">
          <mxGeometry x="50" y="409.5" width="60" height="30" as="geometry" />
        </mxCell>
        <mxCell id="2_Vsr7ODEx59oDxRcPSc-28" value="MABM?" style="text;html=1;strokeColor=none;fillColor=none;align=center;verticalAlign=middle;whiteSpace=wrap;rounded=0;" vertex="1" parent="1">
          <mxGeometry x="50" y="439.5" width="60" height="30" as="geometry" />
        </mxCell>
        <mxCell id="2_Vsr7ODEx59oDxRcPSc-31" value="" style="shape=curlyBracket;whiteSpace=wrap;html=1;rounded=1;" vertex="1" parent="1">
          <mxGeometry x="110" y="475" width="20" height="245" as="geometry" />
        </mxCell>
        <mxCell id="2_Vsr7ODEx59oDxRcPSc-32" value="Extra for later" style="text;html=1;strokeColor=none;fillColor=none;align=center;verticalAlign=middle;whiteSpace=wrap;rounded=0;" vertex="1" parent="1">
          <mxGeometry x="49" y="585" width="60" height="30" as="geometry" />
        </mxCell>
        <mxCell id="2_Vsr7ODEx59oDxRcPSc-55" style="edgeStyle=orthogonalEdgeStyle;rounded=0;orthogonalLoop=1;jettySize=auto;html=1;exitX=0.5;exitY=1;exitDx=0;exitDy=0;exitPerimeter=0;entryX=1;entryY=0.5;entryDx=0;entryDy=0;" edge="1" parent="1" source="2_Vsr7ODEx59oDxRcPSc-39" target="2_Vsr7ODEx59oDxRcPSc-47">
          <mxGeometry relative="1" as="geometry" />
        </mxCell>
        <mxCell id="2_Vsr7ODEx59oDxRcPSc-39" value="Synthesised population" style="shape=card;whiteSpace=wrap;html=1;" vertex="1" parent="1">
          <mxGeometry x="567" y="300" width="80" height="100" as="geometry" />
        </mxCell>
        <mxCell id="2_Vsr7ODEx59oDxRcPSc-61" style="edgeStyle=orthogonalEdgeStyle;rounded=0;orthogonalLoop=1;jettySize=auto;html=1;exitX=0.5;exitY=1;exitDx=0;exitDy=0;" edge="1" parent="1" source="2_Vsr7ODEx59oDxRcPSc-47" target="2_Vsr7ODEx59oDxRcPSc-59">
          <mxGeometry relative="1" as="geometry" />
        </mxCell>
        <mxCell id="2_Vsr7ODEx59oDxRcPSc-47" value="Activities generation" style="rounded=0;whiteSpace=wrap;html=1;" vertex="1" parent="1">
          <mxGeometry x="410" y="430" width="120" height="60" as="geometry" />
        </mxCell>
        <mxCell id="2_Vsr7ODEx59oDxRcPSc-48" value="- Persons (whole population)&#xa;- Households (whole population)" style="shape=partialRectangle;fillColor=none;align=left;verticalAlign=middle;strokeColor=none;spacingLeft=34;rotatable=0;points=[[0,0.5],[1,0.5]];portConstraint=eastwest;dropTarget=0;" vertex="1" parent="1">
          <mxGeometry x="607" y="400.5" width="90" height="44" as="geometry" />
        </mxCell>
        <mxCell id="2_Vsr7ODEx59oDxRcPSc-49" value="" style="shape=partialRectangle;top=0;left=0;bottom=0;fillColor=none;stokeWidth=1;dashed=1;align=left;verticalAlign=middle;spacingLeft=4;spacingRight=4;overflow=hidden;rotatable=0;points=[];portConstraint=eastwest;part=1;" vertex="1" connectable="0" parent="2_Vsr7ODEx59oDxRcPSc-48">
          <mxGeometry width="30" height="44" as="geometry" />
        </mxCell>
        <mxCell id="2_Vsr7ODEx59oDxRcPSc-58" value="" style="edgeStyle=segmentEdgeStyle;endArrow=classic;html=1;rounded=0;entryX=0.5;entryY=1;entryDx=0;entryDy=0;" edge="1" parent="1" target="2_Vsr7ODEx59oDxRcPSc-2">
          <mxGeometry width="50" height="50" relative="1" as="geometry">
            <mxPoint x="410" y="140" as="sourcePoint" />
            <mxPoint x="530" y="370" as="targetPoint" />
            <Array as="points">
              <mxPoint x="413" y="140" />
            </Array>
          </mxGeometry>
        </mxCell>
        <mxCell id="2_Vsr7ODEx59oDxRcPSc-69" style="edgeStyle=orthogonalEdgeStyle;rounded=0;orthogonalLoop=1;jettySize=auto;html=1;exitX=0.5;exitY=0;exitDx=0;exitDy=0;exitPerimeter=0;entryX=0;entryY=0.5;entryDx=0;entryDy=0;" edge="1" parent="1" source="2_Vsr7ODEx59oDxRcPSc-59" target="2_Vsr7ODEx59oDxRcPSc-68">
          <mxGeometry relative="1" as="geometry" />
        </mxCell>
        <mxCell id="2_Vsr7ODEx59oDxRcPSc-59" value="" style="strokeWidth=2;html=1;shape=mxgraph.flowchart.annotation_1;align=left;pointerEvents=1;rotation=90;" vertex="1" parent="1">
          <mxGeometry x="361.25" y="556.25" width="217.5" height="153.75" as="geometry" />
        </mxCell>
        <mxCell id="2_Vsr7ODEx59oDxRcPSc-60" value="Location choice" style="rounded=1;whiteSpace=wrap;html=1;" vertex="1" parent="1">
          <mxGeometry x="410" y="540" width="120" height="20" as="geometry" />
        </mxCell>
        <mxCell id="2_Vsr7ODEx59oDxRcPSc-62" value="Mode choice" style="rounded=1;whiteSpace=wrap;html=1;" vertex="1" parent="1">
          <mxGeometry x="410" y="575" width="120" height="20" as="geometry" />
        </mxCell>
        <mxCell id="2_Vsr7ODEx59oDxRcPSc-63" value="Schedule" style="rounded=1;whiteSpace=wrap;html=1;" vertex="1" parent="1">
          <mxGeometry x="410" y="616.88" width="120" height="20" as="geometry" />
        </mxCell>
        <mxCell id="2_Vsr7ODEx59oDxRcPSc-64" value="Trip" style="rounded=1;whiteSpace=wrap;html=1;" vertex="1" parent="1">
          <mxGeometry x="410" y="660" width="120" height="20" as="geometry" />
        </mxCell>
        <mxCell id="2_Vsr7ODEx59oDxRcPSc-65" value="Departure/arrival time" style="rounded=1;whiteSpace=wrap;html=1;" vertex="1" parent="1">
          <mxGeometry x="410" y="700" width="120" height="20" as="geometry" />
        </mxCell>
        <mxCell id="2_Vsr7ODEx59oDxRcPSc-71" style="edgeStyle=orthogonalEdgeStyle;rounded=0;orthogonalLoop=1;jettySize=auto;html=1;exitX=0.5;exitY=1;exitDx=0;exitDy=0;" edge="1" parent="1" source="2_Vsr7ODEx59oDxRcPSc-68" target="2_Vsr7ODEx59oDxRcPSc-70">
          <mxGeometry relative="1" as="geometry" />
        </mxCell>
        <mxCell id="2_Vsr7ODEx59oDxRcPSc-68" value="Micro Stimulation" style="rounded=0;whiteSpace=wrap;html=1;" vertex="1" parent="1">
          <mxGeometry x="640" y="603.13" width="120" height="60" as="geometry" />
        </mxCell>
        <mxCell id="2_Vsr7ODEx59oDxRcPSc-70" value="Final report" style="shape=card;whiteSpace=wrap;html=1;" vertex="1" parent="1">
          <mxGeometry x="660" y="740" width="80" height="100" as="geometry" />
        </mxCell>
        <mxCell id="2_Vsr7ODEx59oDxRcPSc-72" value="Charging&amp;nbsp; infrastructure prediction model" style="rhombus;whiteSpace=wrap;html=1;" vertex="1" parent="1">
          <mxGeometry x="80" y="810" width="141" height="80" as="geometry" />
        </mxCell>
        <mxCell id="2_Vsr7ODEx59oDxRcPSc-73" value="BEAM" style="rhombus;whiteSpace=wrap;html=1;" vertex="1" parent="1">
          <mxGeometry x="280" y="810" width="141" height="80" as="geometry" />
        </mxCell>
        <mxCell id="2_Vsr7ODEx59oDxRcPSc-74" value="Power grid model &lt;br&gt;(before EV)" style="rhombus;whiteSpace=wrap;html=1;" vertex="1" parent="1">
          <mxGeometry x="180" y="920" width="141" height="80" as="geometry" />
        </mxCell>
        <mxCell id="2_Vsr7ODEx59oDxRcPSc-75" value="Behaviours/ Traits" style="rounded=1;whiteSpace=wrap;html=1;" vertex="1" parent="1">
          <mxGeometry x="410" y="730" width="120" height="20" as="geometry" />
        </mxCell>
      </root>
    </mxGraphModel>
  </diagram>
</mxfile>
